<?xml version="1.0" standalone="no"?>
<!DOCTYPE svg PUBLIC "-//W3C//DTD SVG 20010904//EN"
 "http://www.w3.org/TR/2001/REC-SVG-20010904/DTD/svg10.dtd">
<svg version="1.0" xmlns="http://www.w3.org/2000/svg"
 width="1081.000000pt" height="1081.000000pt" viewBox="0 0 1081.000000 1081.000000"
 preserveAspectRatio="xMidYMid meet">

<g transform="translate(0.000000,1081.000000) scale(0.100000,-0.100000)"
fill="#000000" stroke="none">
<path d="M5100 10793 c-957 -65 -1795 -334 -2575 -826 -710 -448 -1337 -1095
-1767 -1822 -991 -1678 -995 -3783 -12 -5462 424 -724 994 -1325 1694 -1788
762 -504 1632 -801 2559 -874 172 -14 637 -14 812 -1 548 43 1099 170 1604
372 186 74 570 263 730 359 263 157 500 325 740 525 165 137 519 491 655 654
723 869 1135 1858 1246 2990 13 123 18 267 18 485 0 335 -14 526 -60 825 -150
979 -555 1869 -1204 2651 -136 162 -490 517 -655 653 -359 299 -697 519 -1100
716 -639 313 -1300 490 -2015 540 -131 9 -557 11 -670 3z m856 -1760 c33 -11
67 -34 105 -72 66 -66 89 -124 89 -220 0 -52 -6 -79 -29 -126 -53 -110 -1351
-2350 -1364 -2352 -15 -4 -521 289 -520 300 1 11 1294 2252 1348 2337 43 67
97 112 162 136 53 18 150 17 209 -3z m1439 -107 c138 -65 212 -230 165 -370
-7 -21 -185 -338 -397 -704 -309 -535 -381 -668 -371 -677 34 -31 561 -326
567 -317 3 6 105 182 226 392 121 210 235 400 254 422 21 24 60 52 95 69 153
73 329 11 407 -144 29 -55 37 -160 17 -219 -12 -35 -1356 -2378 -1377 -2400
-3 -3 -124 62 -269 145 -186 108 -261 156 -257 166 3 8 137 241 297 519 270
468 290 506 274 518 -30 21 -540 314 -551 315 -5 1 -143 -229 -305 -511 -163
-282 -299 -512 -304 -512 -5 0 -509 286 -524 298 -6 4 1667 2897 1697 2934 15
19 56 50 90 68 55 28 72 32 139 32 60 0 88 -5 127 -24z m-3458 -912 c123 -59
192 -202 164 -336 -15 -70 -429 -791 -450 -783 -7 3 -128 71 -267 152 l-254
146 19 31 c10 17 103 177 206 356 103 179 198 340 211 357 29 39 100 82 163
100 62 17 144 8 208 -23z m848 -2125 c1077 -621 1799 -1044 1829 -1070 199
-175 83 -508 -184 -527 -40 -3 -83 1 -106 8 -21 7 -273 148 -559 313 -286 165
-979 565 -1539 889 -560 324 -1022 585 -1026 581 -13 -15 -208 -358 -245 -432
-277 -552 -304 -1222 -74 -1812 205 -527 599 -952 1111 -1199 308 -148 622
-220 963 -220 750 0 1448 367 1863 981 28 41 346 585 707 1209 361 624 670
1150 688 1168 18 19 55 46 82 60 43 23 62 27 135 27 73 0 92 -4 135 -27 128
-68 199 -214 166 -344 -13 -52 -1291 -2279 -1416 -2469 -594 -898 -1677 -1391
-2749 -1250 -545 72 -1049 294 -1476 653 -119 99 -299 286 -392 406 -675 869
-805 2021 -339 3001 32 66 169 314 305 550 324 560 315 547 329 538 7 -4 813
-470 1792 -1034z m3479 -3165 c182 -45 349 -208 408 -399 28 -90 30 -233 4
-320 -48 -163 -156 -295 -299 -365 -184 -91 -350 -91 -534 0 -196 96 -317 295
-317 520 0 201 96 379 268 491 139 91 296 116 470 73z"/>
</g>
</svg>
